<svg version="1.1" xmlns="http://www.w3.org/2000/svg" xmlns:xlink="http://www.w3.org/1999/xlink" width="640" height="360" viewBox="0,0,640,360"><g data-paper-data="{&quot;isPaintingLayer&quot;:true}" fill-rule="nonzero" stroke-linecap="butt" stroke-linejoin="miter" stroke-miterlimit="10" stroke-dasharray="" stroke-dashoffset="0" style="mix-blend-mode: normal"><path d="M0,27v-27h640v27z" fill="#232323" stroke="#000000" stroke-width="0"/><path d="M266.66667,237v-210h373.33333v210z" fill="#ffffff" stroke="#000000" stroke-width="0"/><path d="M255.66667,360v-123h384.33333v123z" fill="#292929" stroke="#000000" stroke-width="0"/><text transform="translate(343.50926,146.13438) scale(1.17787,1.17787)" font-size="40" xml:space="preserve" fill="#fafafa" fill-rule="nonzero" stroke="none" stroke-width="1" stroke-linecap="butt" stroke-linejoin="miter" stroke-miterlimit="10" stroke-dasharray="" stroke-dashoffset="0" font-family="&quot;Fact Black&quot;, Sans Serif" font-weight="normal" text-anchor="start" style="mix-blend-mode: normal"><tspan x="0" dy="0">PREVIEW</tspan></text><path d="M0,360v-180h266.66667v180z" fill="#292929" stroke="#000000" stroke-width="0"/><path d="M0,180v-153h266.66667v153z" fill="#292929" stroke="#000000" stroke-width="0"/><path d="M0,204v-24h266.66667v24z" fill="#363636" stroke="#000000" stroke-width="0"/><text transform="translate(10.50335,195.04027) scale(0.25336,0.25336)" font-size="40" xml:space="preserve" fill="#4e4e4e" fill-rule="nonzero" stroke="none" stroke-width="1" stroke-linecap="butt" stroke-linejoin="miter" stroke-miterlimit="10" stroke-dasharray="" stroke-dashoffset="0" font-family="&quot;Fact Black&quot;, Sans Serif" font-weight="normal" text-anchor="start" style="mix-blend-mode: normal"><tspan x="0" dy="0">PROPERTIES</tspan></text><path d="M0,51v-24h266.66667v24z" fill="#363636" stroke="#000000" stroke-width="0"/><text transform="translate(10.50335,42.04027) scale(0.25336,0.25336)" font-size="40" xml:space="preserve" fill="#4e4e4e" fill-rule="nonzero" stroke="none" stroke-width="1" stroke-linecap="butt" stroke-linejoin="miter" stroke-miterlimit="10" stroke-dasharray="" stroke-dashoffset="0" font-family="&quot;Fact Black&quot;, Sans Serif" font-weight="normal" text-anchor="start" style="mix-blend-mode: normal"><tspan x="0" dy="0">SCENE OBJECTS</tspan></text><path d="M266.66667,261v-24h373.33333v24z" fill="#363636" stroke="#000000" stroke-width="0"/><text transform="translate(277.17002,252.04027) scale(0.25336,0.25336)" font-size="40" xml:space="preserve" fill="#4e4e4e" fill-rule="nonzero" stroke="none" stroke-width="1" stroke-linecap="butt" stroke-linejoin="miter" stroke-miterlimit="10" stroke-dasharray="" stroke-dashoffset="0" font-family="&quot;Fact Black&quot;, Sans Serif" font-weight="normal" text-anchor="start" style="mix-blend-mode: normal"><tspan x="0" dy="0">ASSET EXPLORER</tspan></text><path d="M581.08053,197.54026c0,-10.74732 8.71242,-19.45973 19.45973,-19.45973c10.74732,0 19.45974,8.71242 19.45974,19.45973c0,10.74732 -8.71242,19.45974 -19.45974,19.45974c-10.74732,0 -19.45973,-8.71242 -19.45973,-19.45974z" fill="#4e4e4e" stroke="#000000" stroke-width="0"/><path d="M20.843,18.65028v-3.43352h-3.43352v-3.43352h-3.43352v6.86705zM17.40948,11.78323v-3.43352h6.86705v6.86705h-3.43352v-3.43352z" fill="#ffffff" stroke="#000000" stroke-width="0"/><text transform="translate(288.48002,16.07514) scale(0.2232,0.2232)" font-size="40" xml:space="preserve" fill="#737373" fill-rule="nonzero" stroke="none" stroke-width="1" stroke-linecap="butt" stroke-linejoin="miter" stroke-miterlimit="10" stroke-dasharray="" stroke-dashoffset="0" font-family="&quot;Fact Black&quot;, Sans Serif" font-weight="normal" text-anchor="start" style="mix-blend-mode: normal"><tspan x="0" dy="0">FOCUS 2024.0</tspan></text><path d="M605.80901,197.54026l-10.53749,6.08052v-12.16104z" fill="#626262" stroke="#000000" stroke-width="0"/><text transform="translate(625.82539,15.71778) scale(0.19342,0.19342)" font-size="40" xml:space="preserve" fill="#737373" fill-rule="nonzero" stroke="none" stroke-width="1" stroke-linecap="butt" stroke-linejoin="miter" stroke-miterlimit="10" stroke-dasharray="" stroke-dashoffset="0" font-family="&quot;Fact Black&quot;, Sans Serif" font-weight="normal" text-anchor="end" style="mix-blend-mode: normal"><tspan x="0" dy="0">ACCOUNT</tspan></text><text transform="translate(91.4004,15.73158) scale(0.19342,0.19342)" font-size="40" xml:space="preserve" fill="#737373" fill-rule="nonzero" stroke="none" stroke-width="1" stroke-linecap="butt" stroke-linejoin="miter" stroke-miterlimit="10" stroke-dasharray="" stroke-dashoffset="0" font-family="&quot;Fact Black&quot;, Sans Serif" font-weight="normal" text-anchor="start" style="mix-blend-mode: normal"><tspan x="0" dy="0">PROJECT NAME</tspan></text></g></svg>