<svg version="1.1" xmlns="http://www.w3.org/2000/svg" xmlns:xlink="http://www.w3.org/1999/xlink" width="48" height="48" viewBox="0,0,48,48"><g transform="translate(-266.66667,-261)"><g data-paper-data="{&quot;isPaintingLayer&quot;:true}" fill-rule="nonzero" stroke-linecap="butt" stroke-linejoin="miter" stroke-miterlimit="10" stroke-dasharray="" stroke-dashoffset="0" style="mix-blend-mode: normal"><path d="M266.66667,309v-48h48v48z" fill="#545454" stroke="#000000" stroke-width="0"/><path d="M278.85024,300.50526c-1.00125,0 -1.86637,-0.36449 -2.59536,-1.09348c-0.72898,-0.72898 -1.09348,-1.5941 -1.09348,-2.59536v-23.59231c0,-1.01241 0.36449,-1.88707 1.09348,-2.62398c0.72898,-0.73693 1.5941,-1.10539 2.59536,-1.10539h23.59231c1.01241,0 1.88707,0.36847 2.62398,1.10539c0.73693,0.7369 1.10539,1.61156 1.10539,2.62398v23.59231c0,1.00125 -0.36847,1.86637 -1.10539,2.59536c-0.7369,0.72898 -1.61156,1.09348 -2.62398,1.09348zM282.13371,293.53296h17.10645c0.36483,0 0.63169,-0.17059 0.8006,-0.51177c0.1689,-0.34118 0.14525,-0.67054 -0.07094,-0.98808l-4.58064,-6.32371c-0.19749,-0.18917 -0.45631,-0.29051 -0.77644,-0.30402c-0.32013,-0.01351 -0.56127,0.10134 -0.72342,0.34456l-4.62117,5.87781l-2.95917,-4.13474c-0.22452,-0.24322 -0.49685,-0.35807 -0.81698,-0.34456c-0.32013,0.01351 -0.56127,0.12837 -0.72342,0.34456l-3.36454,4.5401c-0.24322,0.31754 -0.28038,0.6469 -0.11148,0.98808c0.1689,0.34118 0.44928,0.51177 0.84113,0.51177z" fill="#606060" stroke="none" stroke-width="1"/></g></g></svg>