<svg version="1.1" xmlns="http://www.w3.org/2000/svg" xmlns:xlink="http://www.w3.org/1999/xlink" width="48" height="48" viewBox="0,0,48,48"><g transform="translate(-266.66667,-261)"><g data-paper-data="{&quot;isPaintingLayer&quot;:true}" fill-rule="nonzero" stroke-linecap="butt" stroke-linejoin="miter" stroke-miterlimit="10" stroke-dasharray="" stroke-dashoffset="0" style="mix-blend-mode: normal"><path d="M266.66667,309v-48h48v48z" fill="#545454" stroke="#000000" stroke-width="0"/><path d="M282.88645,292.92736v-15.89151c0,-0.39361 0.1454,-0.73112 0.43621,-1.01253c0.2908,-0.28141 0.63545,-0.42212 1.03394,-0.42212c0.43282,0 0.79261,0.14071 1.07937,0.42212c0.28676,0.28141 0.43014,0.61892 0.43014,1.01253v15.89151c0,0.42794 -0.14047,0.7863 -0.42142,1.07507c-0.28095,0.28877 -0.64159,0.43315 -1.08195,0.43315c-0.42076,0 -0.772,-0.145 -1.05373,-0.43499c-0.28171,-0.28999 -0.42256,-0.64774 -0.42256,-1.07323zM289.21363,299.03382v-28.06765c0,-0.40403 0.14052,-0.75027 0.42157,-1.03872c0.28104,-0.28848 0.61809,-0.43271 1.01113,-0.43271c0.39307,0 0.7369,0.14424 1.03148,0.43271c0.29461,0.28845 0.44191,0.63469 0.44191,1.03872v28.06765c0,0.43469 -0.1441,0.78859 -0.43231,1.06171c-0.28823,0.27315 -0.63418,0.40972 -1.03784,0.40972c-0.39324,0 -0.73087,-0.13658 -1.0129,-0.40972c-0.28203,-0.27312 -0.42304,-0.62703 -0.42304,-1.06171zM276.63285,286.78412v-3.60502c0,-0.44511 0.1393,-0.7955 0.41789,-1.05116c0.27857,-0.25566 0.62813,-0.38349 1.04869,-0.38349c0.42058,0 0.77178,0.13626 1.05359,0.40877c0.28181,0.27254 0.42271,0.62676 0.42271,1.06267v3.60502c0,0.46902 -0.14321,0.83151 -0.42962,1.08746c-0.28642,0.25598 -0.63346,0.38397 -1.04115,0.38397c-0.43285,0 -0.78641,-0.13641 -1.06068,-0.40924c-0.27428,-0.27283 -0.41141,-0.63916 -0.41141,-1.09898zM295.43045,292.92736v-15.89151c0,-0.39361 0.14788,-0.73112 0.44364,-1.01253c0.29573,-0.28141 0.64888,-0.42212 1.05943,-0.42212c0.44486,0 0.79605,0.14071 1.05355,0.42212c0.2575,0.28141 0.38625,0.61892 0.38625,1.01253v15.89151c0,0.42794 -0.1286,0.7863 -0.38581,1.07507c-0.25721,0.28877 -0.60671,0.43315 -1.04851,0.43315c-0.43263,0 -0.79221,-0.145 -1.07875,-0.43499c-0.28654,-0.28999 -0.42981,-0.64774 -0.42981,-1.07323zM301.72084,286.78412v-3.60502c0,-0.44511 0.14788,-0.7955 0.44364,-1.05116c0.29573,-0.25566 0.64651,-0.38349 1.05233,-0.38349c0.44013,0 0.79744,0.13626 1.07194,0.40877c0.2745,0.27254 0.41174,0.62676 0.41174,1.06267v3.60502c0,0.46902 -0.1371,0.83151 -0.4113,1.08746c-0.2742,0.25598 -0.62984,0.38397 -1.0669,0.38397c-0.42789,0 -0.78511,-0.13641 -1.07165,-0.40924c-0.28654,-0.27283 -0.42981,-0.63916 -0.42981,-1.09898z" fill="#606060" stroke="none" stroke-width="1"/></g></g></svg>