<svg version="1.1" xmlns="http://www.w3.org/2000/svg" xmlns:xlink="http://www.w3.org/1999/xlink" width="48" height="48" viewBox="0,0,48,48"><g transform="translate(-266.66667,-261)"><g data-paper-data="{&quot;isPaintingLayer&quot;:true}" fill-rule="nonzero" stroke-linecap="butt" stroke-linejoin="miter" stroke-miterlimit="10" stroke-dasharray="" stroke-dashoffset="0" style="mix-blend-mode: normal"><path d="M266.66667,309v-48h48v48z" fill="#545454" stroke="#000000" stroke-width="0"/><path d="M280.15335,300.50526c-0.80006,0 -1.47909,-0.26756 -2.03711,-0.80269c-0.55802,-0.5351 -0.83703,-1.20203 -0.83703,-2.00081c0,-0.78463 0.27901,-1.45477 0.83703,-2.01044c0.55802,-0.55567 1.23706,-0.8335 2.03711,-0.8335h4.14568l6.6954,-19.76605h-4.89109c-0.75434,0 -1.40514,-0.26269 -1.9524,-0.78807c-0.54726,-0.52535 -0.8209,-1.18035 -0.8209,-1.96501c0,-0.78463 0.27363,-1.45477 0.8209,-2.01044c0.54726,-0.55567 1.19806,-0.8335 1.9524,-0.8335h15.12708c0.76846,0 1.43119,0.2792 1.9882,0.83759c0.55701,0.55839 0.83552,1.22281 0.83552,1.99324c0,0.80204 -0.2785,1.46358 -0.83552,1.98462c-0.55701,0.52104 -1.21975,0.78157 -1.9882,0.78157h-4.09873l-6.74234,19.76605h4.89109c0.80006,0 1.46228,0.28098 1.98669,0.84293c0.52441,0.56196 0.78661,1.23074 0.78661,2.00635c0,0.80722 -0.2622,1.47538 -0.78661,2.00449c-0.52441,0.52911 -1.18663,0.79367 -1.98669,0.79367z" fill="#606060" stroke="none" stroke-width="1"/></g></g></svg>