<svg version="1.1" xmlns="http://www.w3.org/2000/svg" xmlns:xlink="http://www.w3.org/1999/xlink" width="48" height="48" viewBox="0,0,48,48"><g transform="translate(-266.66667,-261)"><g data-paper-data="{&quot;isPaintingLayer&quot;:true}" fill-rule="nonzero" stroke-linecap="butt" stroke-linejoin="miter" stroke-miterlimit="10" stroke-dasharray="" stroke-dashoffset="0" style="mix-blend-mode: normal"><path d="M266.66667,309v-48h48v48z" fill="#545454" stroke="#000000" stroke-width="0"/><path d="M275.92931,290.95504l6.10208,-8.16061c0.15929,-0.17155 0.35591,-0.32471 0.58984,-0.45949c0.23396,-0.13479 0.48056,-0.20218 0.73979,-0.20218c0.23475,0 0.47312,0.06739 0.71512,0.20218c0.242,0.13479 0.4549,0.28795 0.6387,0.45949l5.25661,7.09459c0.11091,0.12253 0.24645,0.22668 0.4066,0.31246c0.16015,0.08577 0.32041,0.12866 0.48078,0.12866c0.46219,0 0.79744,-0.20468 1.00574,-0.61403c0.20831,-0.40935 0.16542,-0.79283 -0.12866,-1.15043l-4.08031,-5.44041l4.6317,-6.1756c0.15929,-0.17155 0.36203,-0.31858 0.60822,-0.44111c0.24622,-0.12253 0.48669,-0.1838 0.72141,-0.1838c0.23475,0 0.47312,0.06127 0.71512,0.1838c0.242,0.12253 0.4549,0.26957 0.6387,0.44111l10.4397,14.00538c0.44111,0.61266 0.50603,1.21919 0.19475,1.8196c-0.31128,0.6004 -0.80506,0.90061 -1.48134,0.90061h-26.87121c-0.72529,0 -1.23745,-0.3002 -1.53647,-0.90061c-0.29903,-0.6004 -0.22798,-1.20694 0.21313,-1.8196z" fill="#606060" stroke="none" stroke-width="1"/></g></g></svg>